<svg width="108" height="88" viewBox="0 0 108 88" fill="none" xmlns="http://www.w3.org/2000/svg">
<path fill-rule="evenodd" clip-rule="evenodd" d="M87.6569 59.3536C91.6389 54.6492 88.8595 49.4638 86.8284 53.2326C85.7059 55.3175 87.4831 56.948 87.6569 59.3536Z" fill="#B400BA"/>
<path fill-rule="evenodd" clip-rule="evenodd" d="M89.7698 63.8842C93.6717 60.7168 94.9812 56.8678 94.7808 54.3819C94.567 51.7357 92.2686 50.5864 90.3043 53.4999C88.0728 56.8277 90.2375 59.8614 89.7698 63.8842ZM98.4955 51.1477C97.7873 50.9606 96.9588 51.7357 96.6515 52.8851C96.3442 54.0344 96.6782 55.117 97.3864 55.3175C98.0947 55.5046 98.9231 54.7294 99.2305 53.58C99.5378 52.4307 99.2171 51.3348 98.4955 51.1477Z" fill="#E029E6"/>
<path fill-rule="evenodd" clip-rule="evenodd" d="M90.7715 62.7349C97.3325 56.6673 105.003 60.3426 99.6843 63.5367C96.7312 65.3142 94.2591 62.8284 90.7715 62.7349Z" fill="#D5DFE6"/>
<path fill-rule="evenodd" clip-rule="evenodd" d="M9.70089 31.7556C9.70089 31.7556 7.93704 34.9231 6.65424 39.2532C7.45599 39.5205 8.4849 39.7076 9.63408 39.5339C13.0415 39.4804 12.8277 45.0535 5.87921 42.4206C5.53179 44.2115 5.31799 46.0959 5.37144 47.9803C6.9883 48.0739 8.76552 47.9536 10.2087 47.3121C12.7609 45.9222 12.4536 51.4819 5.77231 51.3482C6.05293 52.6178 6.50725 53.8608 7.14865 55.0235C8.52499 55.1037 10.7565 55.1037 12.9079 54.5691C14.6851 54.1147 18.1594 57.536 11.3445 59.514C13.4424 60.9173 16.1817 61.9998 19.7629 62.628C21.2728 61.4786 22.716 60.0486 23.5311 58.4047C24.6402 55.6249 27.6735 58.9928 24.9208 63.1759C27.3261 63.2828 29.9986 63.2294 32.9784 62.9888C39.82 72.451 48.8932 82.1804 48.8932 82.1804L49.9354 81.0712C43.5081 74.9635 37.8156 68.1609 33.7534 62.9354H33.8069C35.1832 60.7302 36.1587 58.6186 36.8134 56.5871C31.9629 58.3112 29.3972 54.4221 32.4038 54.0612C34.3414 53.6737 36.2255 52.5109 37.7889 51.2547C37.8958 48.4748 37.3346 45.9355 36.2656 43.6502C31.7223 53.2594 25.1613 47.8734 29.0097 44.9198C31.4818 42.6879 31.2279 41.2312 32.19 38.1573C30.5999 36.6738 28.7425 35.4176 26.698 34.4152C25.9497 47.7264 19.0413 42.8082 20.6181 39.9081C22.3151 36.754 21.9009 35.6047 22.1013 32.6511C20.4176 32.1699 18.6538 31.8225 16.8766 31.6487C17.8788 39.5339 12.213 38.3177 13.1751 34.9765C13.7364 33.6668 13.7497 32.4105 13.6161 31.5017C12.3333 31.475 11.0104 31.5685 9.70089 31.7556ZM24.4264 47.4324C23.2906 48.5684 21.9677 49.0629 21.4465 48.555C20.9388 48.0471 21.4332 46.7107 22.569 45.5747C23.7048 44.4387 25.0277 43.9442 25.5488 44.4521C26.0566 44.9733 25.5488 46.3097 24.4264 47.4324ZM10.1151 44.7728C11.1708 44.7728 12.026 45.1737 12.026 45.6682C12.026 46.1627 11.1708 46.5637 10.1151 46.5637C9.05949 46.5637 8.20429 46.1627 8.20429 45.6682C8.20429 45.1737 9.05949 44.7728 10.1151 44.7728Z" fill="#B2D11E"/>
<path fill-rule="evenodd" clip-rule="evenodd" d="M6.82812 54.4087C6.92166 54.6091 7.02856 54.8096 7.14883 55.0101C8.39154 55.0769 10.3157 55.0903 12.2533 54.7027C10.5295 54.7294 8.7256 54.6359 6.82812 54.4087ZM13.8969 54.6359C20.9122 54.1948 26.3909 51.7758 30.4263 49.0762C31.963 49.0361 33.9674 47.8867 35.758 44.6525C35.9985 44.4119 36.2257 44.1713 36.4395 43.9308C37.4149 46.1226 37.9093 48.555 37.8158 51.2012C36.2524 52.4574 34.3683 53.6202 32.4307 54.0077C29.4241 54.3552 31.9898 58.2443 36.8403 56.5337C36.1856 58.5651 35.1968 60.6901 33.8338 62.8819H33.7803C37.8292 68.1074 43.5216 74.9234 49.9623 81.0177L48.9201 82.127C48.9201 82.127 39.8336 72.4109 33.0053 62.9353C30.0255 63.1759 27.353 63.2293 24.9477 63.1224C27.687 58.9527 24.6537 55.5714 23.558 58.3512C22.7429 59.9951 21.2997 61.4251 19.7898 62.5745C16.222 61.9463 13.4693 60.8638 11.3714 59.4605C16.997 57.8568 15.5672 55.2239 13.8969 54.6359Z" fill="#88A300"/>
<path fill-rule="evenodd" clip-rule="evenodd" d="M10.1428 35.4176C10.1829 35.471 22.9842 55.6784 32.3647 61.8528L32.2578 62.0132C22.8505 55.8254 10.0091 35.5779 9.98242 35.5245L10.1428 35.4176Z" fill="white"/>
<path fill-rule="evenodd" clip-rule="evenodd" d="M9.20548 30.6865C9.19212 30.7132 5.43725 39.1062 6.61315 41.0441C6.97394 41.0174 11.2366 40.6966 10.956 42.7414C10.6887 44.7595 5.4907 44.3719 4.98293 44.3184C4.96956 44.7194 4.80921 48.0605 5.2769 49.3836C5.5976 49.3703 8.57745 49.1564 10.9961 47.7398C11.6375 47.3656 12.1185 47.3388 12.4392 47.5259C12.653 47.6462 12.8 47.8601 12.8535 48.1273C12.9203 48.3946 12.9069 48.702 12.8134 49.0361C12.5728 49.9182 11.7978 50.9072 10.4482 51.268C7.58862 52.0298 5.26354 52.5243 4.92948 52.6045C5.07646 53.0054 6.30582 56.3065 9.1654 59.2735C9.57963 59.0997 15.085 56.7475 16.1406 58.0573C17.1829 59.3536 12.6397 62.3741 12.1185 62.7215C12.5328 62.9888 15.5126 64.8866 17.9847 65.5682L17.9579 65.6484C15.2854 64.9 12.0383 62.7616 12.025 62.7616L11.9715 62.7349L12.025 62.7082C12.0383 62.6948 17.1428 59.4338 16.0872 58.1241C15.0182 56.8144 9.19212 59.367 9.17876 59.367L9.15203 59.3804L9.13867 59.367C6.06529 56.1729 4.86266 52.6179 4.8493 52.6045L4.83594 52.5644L4.87602 52.551C4.88939 52.551 7.34809 52.0298 10.4348 51.2146C11.7577 50.8671 12.5194 49.8915 12.7466 49.0361C12.8267 48.7154 12.8401 48.4214 12.7866 48.1674C12.7332 47.9269 12.5996 47.7264 12.4125 47.6195C12.1185 47.4457 11.6508 47.4858 11.0361 47.8333C8.45718 49.3302 5.26354 49.4905 5.25018 49.4905H5.22345L5.21009 49.4638C4.68895 48.0605 4.90275 44.3051 4.90275 44.2917V44.2516H4.94284C4.9562 44.2516 10.5952 44.7862 10.8758 42.7414C11.1431 40.71 6.59979 41.1376 6.58643 41.1376H6.5597L6.54634 41.1243C5.31699 39.1998 9.11195 30.6998 9.12531 30.6731L9.20548 30.6865Z" fill="black"/>
<path fill-rule="evenodd" clip-rule="evenodd" d="M25.0812 61.6256C16.155 55.1571 7.29568 60.8104 14.2843 63.9377C18.1594 65.6617 20.8186 62.2537 25.0812 61.6256Z" fill="#D5DFE6"/>
<path d="M59.17 55.812C66.7639 55.812 72.92 51.7492 72.92 46.7374C72.92 41.7256 66.7639 37.6628 59.17 37.6628C51.576 37.6628 45.4199 41.7256 45.4199 46.7374C45.4199 51.7492 51.576 55.812 59.17 55.812Z" fill="#FFB94F"/>
<path fill-rule="evenodd" clip-rule="evenodd" d="M66.3713 39.0126C70.2999 40.603 72.9323 43.4764 72.9323 46.7374C72.9323 50.8804 68.7098 54.382 62.9505 55.4645C61.494 46.5102 65.0083 40.8169 66.3713 39.0126Z" fill="#DE8500"/>
<path fill-rule="evenodd" clip-rule="evenodd" d="M76.6336 35.2438C76.6336 35.2438 76.0991 29.6173 72.2507 26.6369C72.2507 26.6369 68.4423 33.9073 71.0347 36.6337C73.627 39.3601 76.6336 35.2438 76.6336 35.2438Z" fill="#FFAD30"/>
<path fill-rule="evenodd" clip-rule="evenodd" d="M73.8155 37.4356C73.7754 35.471 73.281 30.6864 71.9581 27.2383C71.1163 29.0292 68.8981 34.3884 71.0361 36.6337C71.9581 37.6093 72.9336 37.7162 73.8155 37.4356Z" fill="#DE8500"/>
<path fill-rule="evenodd" clip-rule="evenodd" d="M81.1367 36.5402C81.1367 36.5402 84.5709 32.063 89.4215 31.5819C89.4215 31.5819 88.7801 39.7611 85.1321 40.6966C81.4975 41.6321 81.1367 36.5402 81.1367 36.5402Z" fill="#FFB94F"/>
<path fill-rule="evenodd" clip-rule="evenodd" d="M88.9816 34.4687C88.4471 36.9277 87.3514 40.1353 85.1466 40.6966C83.8504 41.0307 82.9685 40.5897 82.3672 39.8947C83.4496 38.2642 85.935 34.776 88.8881 32.5441C88.8881 32.5441 88.995 33.3728 88.9816 34.4687Z" fill="#DE8500"/>
<path fill-rule="evenodd" clip-rule="evenodd" d="M79.1593 34.5755C84.4374 36.0991 87.738 40.7099 86.5354 44.9064C85.3327 49.0895 80.0813 51.2546 74.8031 49.731C69.5249 48.2075 66.2243 43.5967 67.4269 39.4002C68.6296 35.217 73.8811 33.052 79.1593 34.5755Z" fill="#FFAD30"/>
<path fill-rule="evenodd" clip-rule="evenodd" d="M86.1472 45.9088C84.4502 49.4237 79.6397 51.121 74.8024 49.7311C73.2524 49.29 71.876 48.5684 70.7402 47.6863C71.4885 47.272 72.6377 46.8443 74.3348 46.4033C74.3348 46.3899 80.8156 48.8624 86.1472 45.9088Z" fill="#DE8500"/>
<path fill-rule="evenodd" clip-rule="evenodd" d="M75.7915 44.0377C75.8583 44.0377 75.9252 44.0377 75.992 44.0377C76.0053 43.9842 76.0321 43.9174 76.0588 43.8372C76.2325 43.3962 76.473 43.5699 76.6467 43.7838C76.767 43.6768 76.8605 43.5565 76.9006 43.3962C77.0476 42.8883 76.6334 42.327 75.9786 42.1399C75.3238 41.9528 74.6691 42.2067 74.5354 42.7146C74.482 42.9017 74.5087 43.0888 74.5889 43.2625C74.8695 43.1422 75.257 43.0353 75.1635 43.5699C75.1501 43.6635 75.1234 43.7437 75.0967 43.8105C75.1368 43.8372 75.1902 43.8639 75.2437 43.8907C74.4018 45.1603 72.6647 46.8443 70.1125 44.8128L69.9922 44.9598C72.7315 47.1249 74.5755 45.2806 75.4307 43.9441L75.6044 43.9842C75.4575 45.6147 75.8717 48.3678 80.2145 48.3812V48.1807C76.0721 48.1941 75.6579 45.6013 75.7915 44.0377ZM76.9942 45.4142C77.1011 45.441 77.1679 45.5612 77.1411 45.6682C77.1144 45.7751 76.9942 45.8419 76.8873 45.8152C76.7804 45.7884 76.7135 45.6682 76.7403 45.5612C76.7803 45.441 76.8873 45.3875 76.9942 45.4142ZM72.0233 42.7547C72.1436 42.7948 72.2237 42.9284 72.1836 43.0487C72.1436 43.169 72.0099 43.2492 71.8897 43.2091C71.7694 43.169 71.6892 43.0353 71.7293 42.915C71.7694 42.7948 71.903 42.7279 72.0233 42.7547ZM72.9319 44.3317C73.0121 44.3584 73.0656 44.4386 73.0388 44.5188C73.0121 44.599 72.9319 44.6525 72.8518 44.6257C72.7716 44.599 72.7181 44.5188 72.7449 44.4386C72.7582 44.3451 72.8518 44.305 72.9319 44.3317ZM71.716 44.2114C71.903 44.2649 71.9966 44.452 71.9431 44.6257C71.8897 44.8128 71.7026 44.9064 71.5289 44.8529C71.3418 44.7995 71.2483 44.6124 71.3017 44.4386C71.3418 44.2649 71.5289 44.158 71.716 44.2114ZM78.4106 44.7193C78.5175 44.746 78.5709 44.8529 78.5442 44.9598C78.5175 45.0668 78.4106 45.1202 78.3037 45.0935C78.1968 45.0668 78.1433 44.9598 78.1701 44.8529C78.1968 44.7594 78.3037 44.6925 78.4106 44.7193ZM79.2257 47.4724C79.3192 47.4991 79.3727 47.5927 79.346 47.6862C79.3192 47.7798 79.2257 47.8332 79.1322 47.8065C79.0386 47.7798 78.9852 47.6862 79.0119 47.5927C79.0386 47.4991 79.1322 47.4457 79.2257 47.4724Z" fill="#502152"/>
<path fill-rule="evenodd" clip-rule="evenodd" d="M76.0733 41.9528C76.3673 42.1265 76.5811 42.3671 76.7014 42.621C76.8083 42.875 76.8216 43.1422 76.688 43.3694V43.3828C76.5544 43.61 76.3139 43.7437 76.0466 43.7837C75.7794 43.8238 75.4587 43.757 75.1647 43.5966H75.1513C74.8573 43.4229 74.6435 43.1823 74.5366 42.9284C74.4297 42.6745 74.4164 42.4072 74.55 42.18V42.1666C74.6836 41.9394 74.9242 41.8058 75.1914 41.7657C75.4587 41.7256 75.7794 41.7791 76.0733 41.9528ZM76.6212 42.6478C76.5143 42.4072 76.3139 42.18 76.0466 42.0196C76.0466 42.0196 76.0466 42.0196 76.0332 42.0196C75.7526 41.8592 75.4587 41.8058 75.1914 41.8325C74.9375 41.8592 74.7237 41.9929 74.6035 42.1934C74.4832 42.3938 74.4966 42.6478 74.5901 42.8883C74.697 43.1289 74.8974 43.3561 75.1647 43.5165C75.1647 43.5165 75.1647 43.5165 75.178 43.5165C75.4587 43.6768 75.7526 43.7303 76.0199 43.7036C76.2738 43.6768 76.4876 43.5432 76.6078 43.3427C76.7281 43.1289 76.7281 42.8883 76.6212 42.6478Z" fill="black"/>
<path fill-rule="evenodd" clip-rule="evenodd" d="M69.9658 57.095C69.9658 57.095 68.7365 48.007 75.7385 46.3765C82.7538 44.746 104.695 75.752 107.154 88.1009C107.154 88.1009 105.59 91.4287 98.9091 92.2172C92.0808 82.0735 70.2465 61.9463 69.9658 57.095Z" fill="#FFC9C9"/>
<path fill-rule="evenodd" clip-rule="evenodd" d="M69.9658 57.095C69.9658 57.095 68.7365 48.007 75.7385 46.3765C81.2839 45.0935 96.2099 64.2718 103.399 78.4383C98.2142 78.4918 92.7356 79.6812 89.2613 80.59C80.5623 71.0076 70.1663 60.4228 69.9658 57.095Z" fill="#FF9C9C"/>
<path fill-rule="evenodd" clip-rule="evenodd" d="M89.0473 80.3495C89.0473 80.3495 97.1049 77.2221 102.771 73.5068C99.43 67.7332 73.6136 29.9514 68.9768 53.8206C67.5871 60.9975 89.0473 80.3495 89.0473 80.3495Z" fill="#502152"/>
<path fill-rule="evenodd" clip-rule="evenodd" d="M74.041 64.5124C75.7113 66.6641 77.6355 68.8559 79.5196 70.9007C80.1744 67.8803 80.8425 63.0423 78.5976 62.2003C77.1144 61.639 75.4574 62.6547 74.041 64.5124Z" fill="black"/>
<path fill-rule="evenodd" clip-rule="evenodd" d="M89.0484 80.3495C89.0484 80.3495 97.106 77.2222 102.772 73.5068C102.424 72.9054 101.823 71.9431 101.035 70.7536L87.2578 78.6923C88.3669 79.7347 89.0484 80.3495 89.0484 80.3495Z" fill="white"/>
<path fill-rule="evenodd" clip-rule="evenodd" d="M89.0468 80.3495C89.0468 80.3495 93.296 78.7056 97.7858 76.3801C97.2113 75.5382 96.5431 74.6561 95.7681 73.8008L87.2695 78.6922C88.3653 79.7347 89.0468 80.3495 89.0468 80.3495Z" fill="#D5DFE6"/>
<path fill-rule="evenodd" clip-rule="evenodd" d="M45.5258 56.948C45.5258 56.948 46.7551 47.86 39.7532 46.2296C32.7379 44.5991 10.7832 75.605 8.33789 87.954C8.33789 87.954 9.90131 91.2818 16.5826 92.0703C23.4108 81.9265 45.2452 61.7994 45.5258 56.948Z" fill="#FFC9C9"/>
<path fill-rule="evenodd" clip-rule="evenodd" d="M45.5259 56.948C45.5259 56.948 46.7552 47.86 39.7533 46.2295C33.8871 44.8663 17.5581 66.3567 10.957 80.6301C13.83 80.844 18.4668 81.5389 23.3575 83.6506C32.4306 73.3598 45.3121 60.6767 45.5259 56.948Z" fill="#FF9C9C"/>
<path fill-rule="evenodd" clip-rule="evenodd" d="M39.2052 69.484C39.2052 69.484 29.21 76.3935 24.787 82.8754L12.2129 74.7363C12.2129 74.7363 26.8716 51.7892 37.0405 46.4968L39.2052 69.484Z" fill="#502152"/>
<path fill-rule="evenodd" clip-rule="evenodd" d="M39.2051 69.484C39.2051 69.484 33.6596 73.3197 28.9961 77.9572C30.319 73.3197 33.2454 65.047 38.283 59.7946L39.2051 69.484Z" fill="black"/>
<path fill-rule="evenodd" clip-rule="evenodd" d="M26.7513 80.3628C26.0297 81.2048 25.3616 82.0468 24.787 82.8887L12.2129 74.7497C12.2129 74.7497 13.0815 73.3865 14.538 71.2615L26.7513 80.3628Z" fill="white"/>
<path fill-rule="evenodd" clip-rule="evenodd" d="M26.7513 80.3628C26.0297 81.2048 25.3616 82.0468 24.787 82.8887L21.5934 80.8172C21.8473 79.8282 22.4219 78.7992 23.5577 77.9705L26.7513 80.3628ZM17.6782 78.2913L12.2129 74.7497C12.2129 74.7497 13.0815 73.3865 14.538 71.2615L18.1859 73.9879C17.8652 75.0571 17.6381 76.4871 17.6782 78.2913Z" fill="#D5DFE6"/>
<path fill-rule="evenodd" clip-rule="evenodd" d="M36.1464 47.0983C39.8612 43.7705 64.6353 41.298 77.4099 46.7107C77.4099 46.7107 81.9398 54.7428 79.4677 64.8465C76.9956 74.9502 77.1961 101.532 77.1961 101.532C77.1961 101.532 57.2057 107.092 36.6007 102.775C36.6007 102.775 32.4316 67.3992 36.1464 47.0983Z" fill="#502152"/>
<path fill-rule="evenodd" clip-rule="evenodd" d="M79.7745 63.4432C79.6943 63.911 79.5874 64.3788 79.4671 64.8465C77.7968 71.6625 77.3559 86.0028 77.2356 94.5962C72.0376 92.7786 67.7883 89.6246 66.8128 85.388C64.8485 76.8747 70.6746 73.6939 70.6746 73.6939C71.1824 67.466 75.3114 60.9708 78.6119 62.2003C79.1598 62.4008 79.5206 62.8418 79.7745 63.4432Z" fill="black"/>
<path fill-rule="evenodd" clip-rule="evenodd" d="M35.9057 95.7055C35.5048 91.1348 35.0237 84.7598 34.7832 77.7969C37.2954 77.9973 39.5269 78.8393 41.2106 80.1089C41.5981 80.0822 41.999 80.0555 42.3197 80.0555C43.068 80.0421 43.8831 80.0421 44.7917 80.0956C44.7917 80.0956 48.0388 76.4871 52.4084 76.0728C52.4084 76.0728 51.9541 81.7127 49.0009 83.1694C49.0009 83.1694 51.032 88.6489 50.3238 90.3061C49.629 91.95 44.912 94.3957 44.912 94.3957C42.6671 94.7432 40.8097 94.6897 39.273 94.369C38.2441 94.9437 37.1083 95.3981 35.9057 95.7055Z" fill="black"/>
<path fill-rule="evenodd" clip-rule="evenodd" d="M49.1061 43.9442C54.5847 43.3829 60.9987 43.3428 66.8782 44.1714C66.9718 44.559 67.0252 44.9733 67.0252 45.3876C67.0252 49.0896 62.963 52.0966 57.9521 52.0966C52.9411 52.0966 48.8789 49.0896 48.8789 45.3876C48.8923 44.8931 48.9724 44.412 49.1061 43.9442Z" fill="white"/>
<path fill-rule="evenodd" clip-rule="evenodd" d="M65.5701 22.7078C65.5701 22.7078 67.9352 15.4909 69.2848 11.3746C69.2848 11.3746 69.2848 7.59236 65.4097 8.18041C66.2649 7.41862 67.8818 6.53656 69.7124 8.36751L69.7659 8.31405C67.9219 6.46973 66.2783 7.32507 65.3964 8.08685C65.4765 7.7661 65.717 6.7103 65.5834 5.54757C66.1981 3.91708 66.3985 1.89902 64.0868 1.13724C62.1225 0.495733 59.7841 0.656109 57.5659 1.35107C55.6952 1.93912 53.9179 2.88801 52.5282 4.05073C50.3501 4.59868 48.0251 4.79915 45.5396 3.81017C32.431 -1.34859 32.284 23.7903 47.0362 19.8344C59.2897 16.5199 55.5214 27.6393 65.5701 22.7078ZM65.5567 5.37383C65.3429 3.94381 64.5278 2.39351 62.1225 1.93912C59.1961 1.3778 56.1094 3.10184 52.702 3.99727C54.0516 2.88801 55.7753 1.97921 57.5793 1.41789C59.7841 0.736297 62.1092 0.562556 64.0467 1.20406C66.2382 1.92575 66.1179 3.81017 65.5567 5.37383Z" fill="#502152"/>
<path fill-rule="evenodd" clip-rule="evenodd" d="M36.2655 7.93982C34.5284 13.7 37.9626 22.2534 47.0357 19.821C48.5724 19.4067 49.8686 19.2196 50.9509 19.2062C51.5923 18.979 51.9799 18.832 51.9799 18.832L63.6053 14.5019C53.129 15.6245 45.5258 3.81014 38.8445 6.00195C37.6552 6.37616 36.8268 7.07112 36.2655 7.93982Z" fill="black"/>
<path fill-rule="evenodd" clip-rule="evenodd" d="M65.5699 22.7078C65.5699 22.7078 67.9083 15.5711 69.2579 11.4414C66.4251 11.7755 63.6056 14.4885 63.6056 14.4885L59.8775 15.678L58.3809 18.2573C58.3809 18.2573 58.4878 20.8634 58.9955 23.4161C60.3986 24.2046 62.2159 24.3516 65.5699 22.7078Z" fill="black"/>
<path fill-rule="evenodd" clip-rule="evenodd" d="M64.8475 27.0379C64.8475 27.0379 64.126 40.4292 65.2618 47.1383C64.7406 49.5573 53.8235 52.6579 50.9372 47.1383C50.9372 47.1383 50.1087 36.8342 50.416 32.3035C50.7367 27.7462 64.8475 27.0379 64.8475 27.0379Z" fill="#FFC9C9"/>
<path fill-rule="evenodd" clip-rule="evenodd" d="M50.7505 44.5189C50.5233 41.151 50.216 35.3908 50.4164 32.2902C50.6169 29.3367 56.6567 28.0002 60.8526 27.4389L62.8035 30.7266C62.8169 30.7132 62.3225 41.6856 50.7505 44.5189Z" fill="#FF9C9C"/>
<path fill-rule="evenodd" clip-rule="evenodd" d="M43.1359 14.8494C43.1359 14.8494 39.5013 32.063 45.0066 41.4316C45.0066 41.4316 60.9481 40.7099 62.8189 30.7132C62.8189 30.7132 68.8186 30.0984 68.5247 24.0175C68.2307 17.9366 63.7943 20.1017 63.0193 21.7455L61.0817 22.0395C61.0817 22.0395 61.6563 19.2864 60.7744 16.4531L63.6073 14.4885C63.6073 14.4885 51.5008 17.2684 43.1359 14.8494Z" fill="#FFC9C9"/>
<path fill-rule="evenodd" clip-rule="evenodd" d="M43.1338 14.8494C43.1338 14.8494 43.1205 14.9162 43.0938 15.0365C44.7373 15.7849 50.4699 17.95 59.5297 16.2927C59.5297 16.2927 61.0396 17.0011 61.0663 22.0529C61.0663 22.0529 61.6409 19.2998 60.759 16.4665L63.6052 14.4885C63.6052 14.4885 51.4988 17.2684 43.1338 14.8494Z" fill="#FF9C9C"/>
<path fill-rule="evenodd" clip-rule="evenodd" d="M62.8164 30.7132C62.8164 30.7132 68.8162 30.0984 68.5222 24.0175C68.4821 23.1087 68.3351 22.387 68.1347 21.8257C65.6893 21.4114 64.3264 24.3516 64.3264 24.3516C66.4777 25.9955 64.019 27.7062 63.3776 27.4389L62.8164 30.7132Z" fill="#FF9C9C"/>
<path fill-rule="evenodd" clip-rule="evenodd" d="M71.2366 71.2749C71.2366 71.2749 72.9337 62.3606 78.0114 62.0399C78.0114 62.0399 79.6283 62.0399 79.214 64.0579C78.8132 66.076 77.3967 71.756 77.3967 71.756C77.3967 71.756 78.105 71.6892 79.0136 71.9565C79.0136 71.9565 81.4456 62.6279 86.363 64.2317C91.2804 65.8488 85.9621 78.0908 85.9621 78.0908C85.9621 78.0908 87.2182 81.3117 85.6815 84.3722C84.1448 87.4327 78.0248 88.7291 72.947 86.7912C67.8693 84.8801 62.4708 79.8015 71.2366 71.2749Z" fill="white"/>
<path fill-rule="evenodd" clip-rule="evenodd" d="M71.2353 71.2749C72.7987 71.2749 74.7496 72.7049 74.6293 74.87C74.5091 77.0885 72.3176 78.8928 69.4581 78.8928C68.4559 78.8928 67.5071 78.6656 66.7188 78.278C67.133 76.2733 68.4826 73.9478 71.2353 71.2749Z" fill="#FFB94F"/>
<path fill-rule="evenodd" clip-rule="evenodd" d="M85.9607 78.1042C85.9607 78.1042 87.2168 81.3251 85.6801 84.3856C84.1434 87.4461 78.0234 88.7425 72.9456 86.8046C72.4913 86.6309 72.0503 86.4438 71.6094 86.2166C83.5688 87.2724 85.9607 78.1042 85.9607 78.1042Z" fill="#D5DFE6"/>
<path fill-rule="evenodd" clip-rule="evenodd" d="M87.806 72.6381C90.3716 72.3307 92.5363 73.039 94.0463 74.3087C94.5541 73.0524 94.9683 71.1145 93.8993 69.2702C93.8993 69.2702 96.5451 70.9141 95.3692 75.7788C96.8391 77.9973 96.9192 81.0177 94.9549 83.5837C93.445 85.5617 87.3517 87.3659 82.9688 86.7512C84.2248 86.1765 85.1869 85.3746 85.6813 84.399C87.218 81.3385 85.962 78.1176 85.962 78.1176C85.962 78.1176 87.071 75.565 87.806 72.6381Z" fill="#D5DFE6"/>
<path fill-rule="evenodd" clip-rule="evenodd" d="M88.2202 86.5507C86.443 86.8715 84.5856 86.9784 82.9688 86.7512C84.2248 86.1765 85.1869 85.3746 85.6813 84.399C87.218 81.3385 85.9619 78.1176 85.9619 78.1176C85.9619 78.1176 86.2559 77.4494 86.6301 76.4069C87.7525 78.3983 88.6077 81.2583 88.3271 85.2677C88.3004 85.7087 88.2603 86.1364 88.2202 86.5507Z" fill="#D5DFE6"/>
<path fill-rule="evenodd" clip-rule="evenodd" d="M70.3 80.1623C68.8434 79.9619 69.1241 81.5122 70.0728 81.9398C70.0327 82.5279 69.9525 83.3431 68.8301 83.3565V83.557C69.6986 83.5436 69.9525 83.2897 70.1262 82.715C70.0995 83.3164 70.2332 83.9579 70.8077 84.1183L70.8612 83.9312C70.1931 83.7441 70.2732 82.7016 70.3935 82.0868C72.7052 82.8486 71.7565 80.3628 70.3 80.1623Z" fill="#502152"/>
<path fill-rule="evenodd" clip-rule="evenodd" d="M83.8232 85.0672C76.4605 88.5821 69.1378 89.8919 69.1378 89.8919C68.4964 91.108 68.3094 93.1796 69.2447 95.2644C69.2447 95.2644 95.1948 97.1355 105.324 90.5066C112.98 84.1718 91.186 81.5523 83.8232 85.0672Z" fill="#FFC9C9"/>
<path fill-rule="evenodd" clip-rule="evenodd" d="M80.3887 72.4509C80.3887 72.4509 82.1124 64.7262 85.9876 65.381C89.8627 66.0359 84.9186 76.2064 84.9186 76.2064C84.9186 76.2064 83.8362 73.1994 80.3887 72.4509Z" fill="#D5DFE6"/>
<path fill-rule="evenodd" clip-rule="evenodd" d="M76.0716 71.2748C76.0716 71.2748 77.4079 64.7529 77.929 63.1358C74.5216 61.1043 72.1163 68.9895 71.7422 71.0076C71.7422 70.9942 74.0138 70.4195 76.0716 71.2748Z" fill="#D5DFE6"/>
<path fill-rule="evenodd" clip-rule="evenodd" d="M86.0942 83.2362C86.8692 80.5366 85.9606 77.0217 85.9606 77.0217V77.0083V76.995C85.9739 76.9549 90.7845 64.3787 85.7869 64.1382C80.7626 63.8842 79.2526 71.9966 79.2526 72.0233L79.2392 72.0768L79.1991 72.0634C78.678 71.8362 77.6491 71.8095 77.6357 71.8095H77.5689L77.5956 71.756C77.609 71.7293 82.5264 61.9597 77.7426 62.1201C72.9321 62.2938 71.2618 71.2749 71.2484 71.3016V71.315L71.2351 71.3283C71.2083 71.3417 64.0727 77.0618 67.9078 84.9336L67.841 84.9737C64.0594 77.2088 70.8743 71.5288 71.1682 71.2749C71.2351 70.9007 72.9588 62.2137 77.7293 62.0533C82.4329 61.8929 78.05 70.9675 77.6758 71.7427C77.903 71.756 78.6914 71.8095 79.1591 71.9832C79.2927 71.3283 80.8962 63.8308 85.7601 64.0847C90.7845 64.3386 86.161 76.6074 86.0007 77.035C86.0541 77.2622 86.896 80.6569 86.1343 83.2897L86.0942 83.2362Z" fill="black"/>
<path fill-rule="evenodd" clip-rule="evenodd" d="M70.5935 80.0554C70.9009 80.2024 71.1414 80.4296 71.275 80.6702C71.4086 80.9108 71.4354 81.1914 71.3285 81.4186V81.432C71.2216 81.6726 70.9944 81.8196 70.7138 81.8864C70.4465 81.9399 70.1258 81.9131 69.8185 81.7795H69.8051C69.4978 81.6325 69.2706 81.4186 69.137 81.1647C69.0034 80.9241 68.9766 80.6435 69.0835 80.4163V80.4029C69.1904 80.1624 69.4176 80.0153 69.6982 79.9485C69.9788 79.8817 70.2862 79.9084 70.5935 80.0554ZM71.2082 80.6969C71.0879 80.4697 70.8741 80.2559 70.5802 80.1223C70.5802 80.1223 70.5801 80.1223 70.5668 80.1223C70.2728 79.9886 69.9788 79.9619 69.7116 80.0153C69.4577 80.0688 69.2573 80.2158 69.1504 80.4296C69.0568 80.6435 69.0835 80.8974 69.2038 81.1246C69.3241 81.3518 69.5379 81.5657 69.8318 81.6993C69.8318 81.6993 69.8318 81.6993 69.8452 81.6993C70.1392 81.8329 70.4332 81.8597 70.7004 81.8062C70.9543 81.7528 71.1547 81.6057 71.2616 81.3919C71.3552 81.1781 71.3285 80.9241 71.2082 80.6969Z" fill="black"/>
<path fill-rule="evenodd" clip-rule="evenodd" d="M30.3718 95.3847C36.7591 95.3847 41.9838 91.2551 41.9838 86.1765C41.9838 81.1113 36.7724 76.9682 30.3718 76.9682C23.9845 76.9682 18.7598 81.0979 18.7598 86.1765C18.7598 91.2551 23.9711 95.3847 30.3718 95.3847Z" fill="#FFAD30"/>
<path fill-rule="evenodd" clip-rule="evenodd" d="M37.709 79.0531C40.3147 80.737 41.9717 83.303 41.9717 86.1898C41.9717 91.2684 36.7736 95.398 30.3596 95.398C30.079 95.398 29.7984 95.3847 29.5178 95.3713C29.01 94.0883 28.6759 92.6315 28.5958 91.0011C28.0212 79.5342 35.5176 78.9729 37.709 79.0531Z" fill="#DE8500"/>
<path fill-rule="evenodd" clip-rule="evenodd" d="M31.8291 90.8408C37.7888 96.4138 44.3765 99.8753 44.3765 99.8753C44.6171 101.225 44.1761 103.257 42.6528 104.967C42.6528 104.967 17.3442 98.913 9.68742 89.5444C4.30233 81.1915 25.8694 85.2677 31.8291 90.8408Z" fill="#FFC9C9"/>
<path fill-rule="evenodd" clip-rule="evenodd" d="M41.6923 79.3071C41.6923 79.3071 44.6588 75.6986 49.0016 75.2843C49.0016 75.2843 48.9749 80.9242 46.142 82.3809C46.142 82.3809 48.5874 87.8604 48.0128 89.5177C47.4382 91.1615 42.9217 93.6072 42.9217 93.6072C34.8106 94.9036 31.5101 90.667 30.3342 88.3683C30.3743 86.965 30.1872 86.2166 30.1872 86.2166C30.1872 86.2166 25.9914 83.0358 26.2052 78.1844C26.2052 78.1844 31.7373 76.995 33.2205 80.3896C33.2205 80.3896 34.1692 79.7882 36.6012 79.4674C36.6012 79.4674 38.2715 79.2803 39.2069 79.2803C39.9686 79.2536 40.7837 79.267 41.6923 79.3071Z" fill="#FFAD30"/>
<path fill-rule="evenodd" clip-rule="evenodd" d="M48.9866 75.752C48.9064 77.142 48.4788 81.1781 46.1404 82.3809C46.1404 82.3809 46.0335 82.1938 45.8331 81.9399C46.0736 81.7928 46.2473 81.6726 46.2206 81.6191C46.1671 81.5389 45.8732 81.5924 45.6059 81.6592C45.5257 81.579 45.4456 81.4855 45.3654 81.4053C45.6594 80.9509 45.9801 80.3094 45.4322 80.3762C45.1382 80.4163 44.9244 80.6168 44.7507 80.884C44.6037 80.7771 44.4434 80.6836 44.283 80.6034C44.2563 80.59 46.3141 76.5806 48.9866 75.752ZM30.1989 86.2165C30.1989 86.2165 26.0031 83.0358 26.2169 78.1844C29.1433 77.9572 32.1231 81.4988 32.1231 81.4988C32.23 82.4611 32.0964 83.2763 31.8559 83.9446C31.6822 82.8086 30.6532 82.4744 31.1744 84.1049C29.8381 83.7441 30.6265 84.8667 31.4684 84.7598C30.9071 85.7354 30.1989 86.2165 30.1989 86.2165Z" fill="#DE8500"/>
<path fill-rule="evenodd" clip-rule="evenodd" d="M26.2847 83.1561C22.3561 82.9022 16.4499 80.9376 16.6637 76.0862C16.931 69.9919 21.4742 72.1035 20.8595 73.4801C16.8374 74.6562 23.7859 81.0177 25.8037 74.1617C27.2736 69.19 22.7971 65.3811 18.2539 66.5037C9.55485 68.6554 8.4324 85.8557 26.0442 83.8778L26.2847 83.1561Z" fill="#FFAD30"/>
<path fill-rule="evenodd" clip-rule="evenodd" d="M20.8181 72.8385C20.925 73.039 20.9383 73.2662 20.8448 73.4667C20.8314 73.4667 20.8181 73.4801 20.8047 73.4801C20.8715 73.4934 22.5017 73.881 22.5819 75.2175C22.5953 75.2175 22.769 73.2261 20.8181 72.8385Z" fill="#DE8500"/>
<path fill-rule="evenodd" clip-rule="evenodd" d="M30.7865 89.2236C30.105 87.8337 30.1451 86.417 30.1584 86.2299C29.8778 86.0161 25.9626 82.8754 26.1764 78.1844V78.1577H26.2031C26.2165 78.1577 31.7219 76.9816 33.2452 80.3361C34.1138 79.8015 35.5302 79.414 37.0669 79.2135C38.6303 79.013 40.314 79.013 41.6769 79.2669C41.9041 78.9997 44.8038 75.6451 48.9996 75.2442H49.0397V75.2843C49.0397 75.2977 49.013 80.9509 46.1534 82.421L46.1133 82.3542C48.7992 80.9776 48.9461 75.859 48.9595 75.3377C44.6568 75.7654 41.7304 79.3338 41.717 79.3471L41.7037 79.3605H41.6769C40.314 79.1066 38.6303 79.0932 37.0669 79.2937C35.5168 79.4942 34.1004 79.8817 33.2318 80.4297L33.1917 80.4564L33.1784 80.4163C31.7619 77.1954 26.6708 78.1443 26.2299 78.2245C26.0294 83.0358 30.1852 86.1898 30.1985 86.1898L30.2119 86.2032V86.2299C30.2119 86.2299 30.1184 87.7401 30.8266 89.1969L30.7865 89.2236Z" fill="black"/>
<path fill-rule="evenodd" clip-rule="evenodd" d="M74.6012 34.1078C74.6146 34.1078 78.2091 33.5866 81.8705 35.6715C82.2179 35.3908 87.0284 31.6086 89.7543 31.6353H89.7811V31.6621C89.7811 31.6754 90.7966 37.8098 86.5073 41.1242C86.6409 41.5386 88.231 46.9379 82.8459 49.1965L82.8192 49.1297C88.3379 46.8176 86.4404 41.151 86.4271 41.1376L86.4137 41.1109L86.4404 41.0975C90.5427 37.9568 89.7811 32.21 89.7009 31.7289C86.8948 31.7289 81.8972 35.7517 81.8838 35.765L81.8571 35.7784L81.8304 35.765C78.1958 33.6801 74.6013 34.2014 74.5879 34.2014L74.6012 34.1078Z" fill="black"/>
<path fill-rule="evenodd" clip-rule="evenodd" d="M72.6914 34.4285C72.6914 34.4285 72.3573 32.8649 72.0099 32.8248C71.6758 32.798 72.0232 34.5354 72.0232 34.5488L71.9564 34.5755C71.9564 34.5755 71.5823 33.9741 71.1547 34.0944C70.7404 34.2147 71.1948 35.1101 71.1948 35.1101L71.1279 35.1502C71.1279 35.1502 70.6335 34.1612 71.1413 34.0276C71.4887 33.934 71.7827 34.2281 71.9297 34.4018C71.8495 33.9474 71.6758 32.7179 72.0232 32.7579C72.4375 32.798 72.7715 34.4152 72.7849 34.4285H72.6914Z" fill="black"/>
<path fill-rule="evenodd" clip-rule="evenodd" d="M84.7305 37.8766C84.7305 37.8766 85.5589 37.0614 85.9331 37.4623C86.2404 37.7965 85.7995 38.3177 85.6258 38.4914C85.8396 38.5048 86.3607 38.6117 85.9465 39.1997L85.8796 39.1597C86.3072 38.5716 85.5456 38.5716 85.5322 38.5716H85.4387L85.5055 38.5048C85.5055 38.5048 86.2003 37.8633 85.8796 37.5158C85.5589 37.1683 84.7973 37.9301 84.7839 37.9301L84.7305 37.8766Z" fill="black"/>
<path fill-rule="evenodd" clip-rule="evenodd" d="M90.3169 72.7851C91.6933 72.892 92.7623 73.44 92.7088 74.0013C92.6553 74.5626 91.4928 74.9368 90.1165 74.8165C88.7401 74.7096 87.6711 74.1617 87.7246 73.6003C87.7914 73.039 88.9539 72.6648 90.3169 72.7851Z" fill="white"/>
<path fill-rule="evenodd" clip-rule="evenodd" d="M97.3865 55.3041C98.0947 55.4912 98.9231 54.7161 99.2305 53.5667C99.5378 52.4174 99.2038 51.3348 98.4955 51.1344C97.7873 50.9473 96.9589 51.7224 96.6515 52.8718C96.3442 54.0345 96.6649 55.117 97.3865 55.3041Z" fill="#B2D11E"/>
<path fill-rule="evenodd" clip-rule="evenodd" d="M41.2642 6.24249C40.6362 6.01529 34.6765 6.75034 36.5205 13.5129C36.3334 12.1764 37.6029 8.46102 41.2642 6.24249Z" fill="#502152"/>
<path fill-rule="evenodd" clip-rule="evenodd" d="M40.0475 9.51682C40.0475 9.51682 36.4664 10.6261 38.3505 15.3839C38.3505 15.3973 38.4707 12.2967 40.0475 9.51682Z" fill="#502152"/>
<path fill-rule="evenodd" clip-rule="evenodd" d="M73.9621 34.6691C75.7259 34.3751 77.2092 34.4419 77.276 34.8161C77.3428 35.1903 75.9531 35.7249 74.1893 36.0323C72.4254 36.3263 70.9422 36.2595 70.8754 35.8853C70.8085 35.4977 72.1982 34.9631 73.9621 34.6691Z" fill="white"/>
<path fill-rule="evenodd" clip-rule="evenodd" d="M78.3726 35.5111C78.7601 35.5111 79.0674 35.3373 79.0674 35.1369C79.0674 34.9364 78.7601 34.7626 78.3726 34.7626C77.9851 34.7626 77.6777 34.9364 77.6777 35.1369C77.6777 35.3507 77.9851 35.5111 78.3726 35.5111Z" fill="white"/>
<path fill-rule="evenodd" clip-rule="evenodd" d="M72.504 84.1183C72.6243 84.1183 72.7312 84.2252 72.7312 84.3455C72.7312 84.4657 72.6243 84.5727 72.504 84.5727C72.3838 84.5727 72.2769 84.4657 72.2769 84.3455C72.2769 84.2252 72.3704 84.1183 72.504 84.1183ZM67.4263 81.3785C67.5065 81.3785 67.5733 81.4453 67.5733 81.5255C67.5733 81.6057 67.5065 81.6725 67.4263 81.6725C67.3461 81.6725 67.2793 81.6057 67.2793 81.5255C67.2927 81.4453 67.3595 81.3785 67.4263 81.3785ZM68.4953 81.0043C68.5888 81.0043 68.669 81.0845 68.669 81.178C68.669 81.2716 68.5888 81.3518 68.4953 81.3518C68.4017 81.3518 68.3216 81.2716 68.3216 81.178C68.3349 81.0845 68.4151 81.0043 68.4953 81.0043ZM68.4285 81.9933C68.522 81.9933 68.6022 82.0735 68.6022 82.167C68.6022 82.2606 68.522 82.3408 68.4285 82.3408C68.3349 82.3408 68.2548 82.2606 68.2548 82.167C68.2414 82.0735 68.3216 81.9933 68.4285 81.9933ZM71.1544 83.1694C71.2346 83.1694 71.288 83.2362 71.288 83.303C71.288 83.3698 71.2212 83.4367 71.1544 83.4367C71.0876 83.4367 71.0208 83.3698 71.0208 83.303C71.0208 83.2362 71.0876 83.1694 71.1544 83.1694ZM72.2769 83.0491C72.317 83.0491 72.357 83.0892 72.357 83.1293C72.357 83.1694 72.317 83.2095 72.2769 83.2095C72.2368 83.2095 72.1967 83.1694 72.1967 83.1293C72.1967 83.0892 72.2368 83.0491 72.2769 83.0491Z" fill="#D5DFE6"/>
<path fill-rule="evenodd" clip-rule="evenodd" d="M34.7693 78.6388V58.8725C34.7693 58.819 34.5955 53.0188 37.7892 51.1878L37.8293 51.2546C34.6757 53.0722 34.8494 58.8591 34.8494 58.8725V78.6388H34.7693Z" fill="black"/>
<path fill-rule="evenodd" clip-rule="evenodd" d="M25.9634 65.1673C22.5159 62.3607 21.3533 58.966 21.527 56.7609C21.7141 54.4221 23.7586 53.4064 25.4957 55.9857C27.4734 58.9126 25.5625 61.5989 25.9634 65.1673ZM18.2398 53.8875C18.8679 53.7137 19.6028 54.4087 19.8834 55.4244C20.1507 56.4401 19.8701 57.4024 19.2287 57.5761C18.6006 57.7499 17.8657 57.0549 17.5851 56.0392C17.3178 55.0235 17.6118 54.0612 18.2398 53.8875Z" fill="#502152"/>
<path fill-rule="evenodd" clip-rule="evenodd" d="M38.43 75.6585C38.6972 75.6585 38.9244 75.4446 38.9244 75.164C38.9244 74.8967 38.7106 74.6695 38.43 74.6695C38.1627 74.6695 37.9355 74.8833 37.9355 75.164C37.9355 75.4446 38.1627 75.6585 38.43 75.6585Z" fill="white"/>
<path d="M30.1196 74.0948C30.341 74.0948 30.5205 73.9153 30.5205 73.6939C30.5205 73.4724 30.341 73.2929 30.1196 73.2929C29.8982 73.2929 29.7188 73.4724 29.7188 73.6939C29.7188 73.9153 29.8982 74.0948 30.1196 74.0948Z" fill="white"/>
<path fill-rule="evenodd" clip-rule="evenodd" d="M28.1543 76.4871C28.2879 76.4871 28.4082 76.3802 28.4082 76.2332C28.4082 76.0862 28.3013 75.9793 28.1543 75.9793C28.0207 75.9793 27.9004 76.0862 27.9004 76.2332C27.9004 76.3802 28.0207 76.4871 28.1543 76.4871Z" fill="white"/>
<path fill-rule="evenodd" clip-rule="evenodd" d="M88.7134 42.0063C88.8203 42.0063 88.9139 41.9127 88.9139 41.8058C88.9139 41.6989 88.8203 41.6053 88.7134 41.6053C88.6065 41.6053 88.513 41.6989 88.513 41.8058C88.4996 41.9127 88.5932 42.0063 88.7134 42.0063Z" fill="#FFB94F"/>
<path fill-rule="evenodd" clip-rule="evenodd" d="M87.4981 49.3703C87.6852 49.3703 87.8322 49.2232 87.8322 49.0361C87.8322 48.849 87.6852 48.702 87.4981 48.702C87.3111 48.702 87.1641 48.849 87.1641 49.0361C87.1641 49.2232 87.3111 49.3703 87.4981 49.3703Z" fill="#FFB94F"/>
<path fill-rule="evenodd" clip-rule="evenodd" d="M77.1689 31.2344C77.4227 31.2344 77.6365 31.0206 77.6365 30.7666C77.6365 30.5127 77.4227 30.2989 77.1689 30.2989C76.915 30.2989 76.7012 30.5127 76.7012 30.7666C76.7012 31.0206 76.915 31.2344 77.1689 31.2344Z" fill="#FFB94F"/>
<path fill-rule="evenodd" clip-rule="evenodd" d="M24.2927 39.2799C24.7604 39.2799 25.1479 38.8923 25.1479 38.4246C25.1479 37.9568 24.7604 37.5692 24.2927 37.5692C23.825 37.5692 23.4375 37.9568 23.4375 38.4246C23.4375 38.8923 23.825 39.2799 24.2927 39.2799Z" fill="#B2D11E"/>
<path d="M29.1309 33.2926C29.3154 33.2926 29.465 33.143 29.465 32.9585C29.465 32.7739 29.3154 32.6243 29.1309 32.6243C28.9464 32.6243 28.7969 32.7739 28.7969 32.9585C28.7969 33.143 28.9464 33.2926 29.1309 33.2926Z" fill="#B2D11E"/>
<path fill-rule="evenodd" clip-rule="evenodd" d="M1.24271 42.2602C1.9242 42.2602 2.48543 41.6989 2.48543 41.0173C2.48543 40.3357 1.9242 39.7744 1.24271 39.7744C0.561226 39.7744 0 40.3357 0 41.0173C0 41.7122 0.561226 42.2602 1.24271 42.2602Z" fill="#B2D11E"/>
<path fill-rule="evenodd" clip-rule="evenodd" d="M9.1676 59.3135C9.59521 59.3135 9.94263 58.966 9.94263 58.5384C9.94263 58.1107 9.59521 57.7632 9.1676 57.7632C8.74 57.7632 8.39258 58.1107 8.39258 58.5384C8.39258 58.966 8.74 59.3135 9.1676 59.3135Z" fill="#B2D11E"/>
<path fill-rule="evenodd" clip-rule="evenodd" d="M101.57 59.7145C101.583 59.7278 104.095 64.7663 94.875 64.4322V64.352C103.961 64.6861 101.503 59.7679 101.489 59.7546L101.57 59.7145Z" fill="black"/>
<path fill-rule="evenodd" clip-rule="evenodd" d="M98.2536 59.1264C98.4942 59.1264 98.6946 59.2199 98.8549 59.3803C99.0153 59.5407 99.1088 59.7411 99.1088 59.9817C99.1088 60.2223 99.0153 60.4227 98.8549 60.5831C98.6946 60.7435 98.4942 60.837 98.2536 60.837C98.0131 60.837 97.8127 60.7435 97.6523 60.5831C97.492 60.4227 97.3984 60.2223 97.3984 59.9817C97.3984 59.7411 97.492 59.5407 97.6523 59.3803C97.7993 59.2199 98.0131 59.1264 98.2536 59.1264ZM98.8015 59.4338C98.6679 59.3001 98.4674 59.2066 98.2536 59.2066C98.0398 59.2066 97.8528 59.2867 97.7058 59.4338C97.5721 59.5674 97.4786 59.7679 97.4786 59.9817C97.4786 60.1955 97.5588 60.3827 97.7058 60.5297C97.8394 60.6633 98.0398 60.7569 98.2536 60.7569C98.4674 60.7569 98.6545 60.6767 98.8015 60.5297C98.9351 60.396 99.0287 60.1955 99.0287 59.9817C99.0287 59.7545 98.9351 59.5674 98.8015 59.4338Z" fill="black"/>
<path fill-rule="evenodd" clip-rule="evenodd" d="M28.3952 39.8145C28.2483 39.721 28.0745 39.6943 27.9008 39.7343C27.5668 39.8279 27.3797 40.162 27.4599 40.4828C27.5668 40.8703 28.3685 41.2045 28.6892 41.3916C28.7694 41.4317 28.8629 41.4049 28.903 41.3381C29.0901 41.004 29.6246 40.309 29.5177 39.9348C29.4242 39.6007 29.0901 39.4136 28.7694 39.4938C28.609 39.5472 28.4754 39.6675 28.3952 39.8145Z" fill="#E029E6"/>
<path fill-rule="evenodd" clip-rule="evenodd" d="M79.988 24.5521C80.135 24.4585 80.3087 24.4318 80.4824 24.4719C80.8165 24.5654 81.0036 24.8996 80.9234 25.2203C80.8165 25.6079 80.0147 25.942 79.694 26.1291C79.6139 26.1692 79.5203 26.1425 79.4802 26.0756C79.2932 25.7415 78.7587 25.0466 78.8656 24.6724C78.9591 24.3382 79.2932 24.1511 79.6139 24.2313C79.7742 24.2981 79.9078 24.4051 79.988 24.5521Z" fill="#E029E6"/>
</svg>
